<?xml version="1.0" encoding="UTF-8"?>
<svg width="1024px" height="1024px" viewBox="0 0 1024 1024" version="1.1" xmlns="http://www.w3.org/2000/svg" xmlns:xlink="http://www.w3.org/1999/xlink">
    <!-- Generator: Sketch 55.2 (78181) - https://sketchapp.com -->
    <title>Transparent - Dark</title>
    <desc>Created with Sketch.</desc>
    <g id="Transparent---Dark" stroke="none" stroke-width="1" fill="none" fill-rule="evenodd">
        <rect id="Background" fill="#FFFFFF" x="176" y="200" width="672" height="499"></rect>
        <g id="Logo---Dark" transform="translate(0.000000, 69.000000)" fill="#111111">
            <path d="M371.261363,-5.68434189e-14 L652.738637,-5.68434189e-14 C857.780626,-9.45090212e-14 1024,166.219374 1024,371.261363 C1024,548.232004 894.596602,698.604195 719.603047,724.983426 C692.481062,729.071902 666.37769,734.918335 641.292929,742.522726 C579.135356,761.365658 536.037713,808.791448 512,884.800098 C487.962287,808.791448 444.864644,761.365658 382.707071,742.522726 C357.62231,734.918335 331.518938,729.071902 304.396953,724.983426 C129.403398,698.604195 2.16726529e-14,548.232004 0,371.261363 C-2.51104015e-14,166.219374 166.219374,-1.91778166e-14 371.261363,-5.68434189e-14 Z M771.878788,160.627298 C749.254803,176.548841 724.205392,188.726267 697.695207,196.690622 C668.550026,163.256333 621.583088,151.531663 580.090167,167.332093 C538.597246,183.132522 511.404648,223.09701 512,267.403023 L512,290.973823 C427.673227,293.155357 347.851705,253.071281 299.371901,184.198098 C299.371901,184.198098 204.870523,396.3353 417.498623,490.618501 C368.842877,523.569685 310.881151,540.091945 252.121212,537.760101 C464.749311,655.614102 724.628099,537.760101 724.628099,266.695899 C724.606343,260.130338 723.973618,253.580974 722.738072,247.132135 C746.850172,223.407961 763.865718,193.454653 771.878788,160.627298 Z" id="Combined-Shape"></path>
        </g>
    </g>
</svg>